# xmcd CD database file
#
# Track frame offsets:
#	150
#	18761
#	41946
#
# Disc length: 845 seconds
#
# Revision: 0
# Processed by: cddbd v1.5.1PL2 Copyright (c) Steve Scherf et al.
# Submitted via: CDex 1.60beta1-cs1
#
DISCID=1c034b03
DTITLE=岸谷　香 - Hello. Hello (Single)
DYEAR=2006
DGENRE=Rock
TTITLE0=Hello. Hello
TTITLE1=Sweet Sweet Home
TTITLE2=シュークリーム
EXTD=YEAR: 2006
EXTT0=
EXTT1=
EXTT2=
PLAYORDER=
